<svg width="239" height="40" viewBox="0 0 239 40" fill="none" xmlns="http://www.w3.org/2000/svg">
<style>
path {
    fill: black;
}
@media (prefers-color-scheme: dark) {
    path {
        fill: white;
    }   
}
</style>
<path d="M25.05 14.6C25.05 16.3667 24.6333 18.0333 23.8 19.6C22.9667 21.1667 21.6333 22.45 19.8 23.45C17.9667 24.4167 15.6167 24.9 12.75 24.9H6.45V39H0.75V4.25H12.75C15.4167 4.25 17.6667 4.71666 19.5 5.65C21.3667 6.55 22.75 7.78333 23.65 9.35C24.5833 10.9167 25.05 12.6667 25.05 14.6ZM12.75 20.25C14.9167 20.25 16.5333 19.7667 17.6 18.8C18.6667 17.8 19.2 16.4 19.2 14.6C19.2 10.8 17.05 8.9 12.75 8.9H6.45V20.25H12.75ZM44.7363 11C46.8363 11 48.703 11.45 50.3363 12.35C52.003 13.25 53.303 14.5833 54.2363 16.35C55.203 18.1167 55.6863 20.25 55.6863 22.75V39H50.0363V23.6C50.0363 21.1333 49.4197 19.25 48.1863 17.95C46.953 16.6167 45.2697 15.95 43.1363 15.95C41.003 15.95 39.303 16.6167 38.0363 17.95C36.803 19.25 36.1863 21.1333 36.1863 23.6V39H30.4863V2H36.1863V14.65C37.153 13.4833 38.3697 12.5833 39.8363 11.95C41.3363 11.3167 42.9697 11 44.7363 11ZM65.857 7.8C64.8237 7.8 63.957 7.45 63.257 6.75C62.557 6.05 62.207 5.18333 62.207 4.15C62.207 3.11666 62.557 2.25 63.257 1.55C63.957 0.849998 64.8237 0.499998 65.857 0.499998C66.857 0.499998 67.707 0.849998 68.407 1.55C69.107 2.25 69.457 3.11666 69.457 4.15C69.457 5.18333 69.107 6.05 68.407 6.75C67.707 7.45 66.857 7.8 65.857 7.8ZM68.657 11.45V39H62.957V11.45H68.657ZM81.8406 15.55C82.8073 14.2167 84.124 13.1333 85.7906 12.3C87.4906 11.4333 89.374 11 91.4406 11C93.874 11 96.074 11.5833 98.0406 12.75C100.007 13.9167 101.557 15.5833 102.691 17.75C103.824 19.8833 104.391 22.3333 104.391 25.1C104.391 27.8667 103.824 30.35 102.691 32.55C101.557 34.7167 99.9906 36.4167 97.9906 37.65C96.024 38.85 93.8406 39.45 91.4406 39.45C89.3073 39.45 87.4073 39.0333 85.7406 38.2C84.1073 37.3667 82.8073 36.3 81.8406 35V39H76.1406V2H81.8406V15.55ZM98.5906 25.1C98.5906 23.2 98.1906 21.5667 97.3906 20.2C96.624 18.8 95.5906 17.75 94.2906 17.05C93.024 16.3167 91.6573 15.95 90.1906 15.95C88.7573 15.95 87.3906 16.3167 86.0906 17.05C84.824 17.7833 83.7906 18.85 82.9906 20.25C82.224 21.65 81.8406 23.3 81.8406 25.2C81.8406 27.1 82.224 28.7667 82.9906 30.2C83.7906 31.6 84.824 32.6667 86.0906 33.4C87.3906 34.1333 88.7573 34.5 90.1906 34.5C91.6573 34.5 93.024 34.1333 94.2906 33.4C95.5906 32.6333 96.624 31.5333 97.3906 30.1C98.1906 28.6667 98.5906 27 98.5906 25.1ZM135.277 24.55C135.277 25.5833 135.211 26.5167 135.077 27.35H114.027C114.194 29.55 115.011 31.3167 116.477 32.65C117.944 33.9833 119.744 34.65 121.877 34.65C124.944 34.65 127.111 33.3667 128.377 30.8H134.527C133.694 33.3333 132.177 35.4167 129.977 37.05C127.811 38.65 125.111 39.45 121.877 39.45C119.244 39.45 116.877 38.8667 114.777 37.7C112.711 36.5 111.077 34.8333 109.877 32.7C108.711 30.5333 108.127 28.0333 108.127 25.2C108.127 22.3667 108.694 19.8833 109.827 17.75C110.994 15.5833 112.611 13.9167 114.677 12.75C116.777 11.5833 119.177 11 121.877 11C124.477 11 126.794 11.5667 128.827 12.7C130.861 13.8333 132.444 15.4333 133.577 17.5C134.711 19.5333 135.277 21.8833 135.277 24.55ZM129.327 22.75C129.294 20.65 128.544 18.9667 127.077 17.7C125.611 16.4333 123.794 15.8 121.627 15.8C119.661 15.8 117.977 16.4333 116.577 17.7C115.177 18.9333 114.344 20.6167 114.077 22.75H129.327ZM146.587 15.45C147.42 14.05 148.52 12.9667 149.887 12.2C151.287 11.4 152.937 11 154.837 11V16.9H153.387C151.153 16.9 149.453 17.4667 148.287 18.6C147.153 19.7333 146.587 21.7 146.587 24.5V39H140.887V11.45H146.587V15.45ZM165.776 15.55C166.743 14.2167 168.06 13.1333 169.726 12.3C171.426 11.4333 173.31 11 175.376 11C177.81 11 180.01 11.5833 181.976 12.75C183.943 13.9167 185.493 15.5833 186.626 17.75C187.76 19.8833 188.326 22.3333 188.326 25.1C188.326 27.8667 187.76 30.35 186.626 32.55C185.493 34.7167 183.926 36.4167 181.926 37.65C179.96 38.85 177.776 39.45 175.376 39.45C173.243 39.45 171.343 39.0333 169.676 38.2C168.043 37.3667 166.743 36.3 165.776 35V39H160.076V2H165.776V15.55ZM182.526 25.1C182.526 23.2 182.126 21.5667 181.326 20.2C180.56 18.8 179.526 17.75 178.226 17.05C176.96 16.3167 175.593 15.95 174.126 15.95C172.693 15.95 171.326 16.3167 170.026 17.05C168.76 17.7833 167.726 18.85 166.926 20.25C166.16 21.65 165.776 23.3 165.776 25.2C165.776 27.1 166.16 28.7667 166.926 30.2C167.726 31.6 168.76 32.6667 170.026 33.4C171.326 34.1333 172.693 34.5 174.126 34.5C175.593 34.5 176.96 34.1333 178.226 33.4C179.526 32.6333 180.56 31.5333 181.326 30.1C182.126 28.6667 182.526 27 182.526 25.1ZM219.213 24.55C219.213 25.5833 219.146 26.5167 219.013 27.35H197.963C198.13 29.55 198.946 31.3167 200.413 32.65C201.88 33.9833 203.68 34.65 205.813 34.65C208.88 34.65 211.046 33.3667 212.313 30.8H218.463C217.63 33.3333 216.113 35.4167 213.913 37.05C211.746 38.65 209.046 39.45 205.813 39.45C203.18 39.45 200.813 38.8667 198.713 37.7C196.646 36.5 195.013 34.8333 193.813 32.7C192.646 30.5333 192.063 28.0333 192.063 25.2C192.063 22.3667 192.63 19.8833 193.763 17.75C194.93 15.5833 196.546 13.9167 198.613 12.75C200.713 11.5833 203.113 11 205.813 11C208.413 11 210.73 11.5667 212.763 12.7C214.796 13.8333 216.38 15.4333 217.513 17.5C218.646 19.5333 219.213 21.8833 219.213 24.55ZM213.263 22.75C213.23 20.65 212.48 18.9667 211.013 17.7C209.546 16.4333 207.73 15.8 205.563 15.8C203.596 15.8 201.913 16.4333 200.513 17.7C199.113 18.9333 198.28 20.6167 198.013 22.75H213.263ZM230.522 15.45C231.356 14.05 232.456 12.9667 233.822 12.2C235.222 11.4 236.872 11 238.772 11V16.9H237.322C235.089 16.9 233.389 17.4667 232.222 18.6C231.089 19.7333 230.522 21.7 230.522 24.5V39H224.822V11.45H230.522V15.45Z"/>
</svg>
